<svg width="233" height="174" viewBox="0 0 233 174" fill="none" xmlns="http://www.w3.org/2000/svg">
<path d="M72.1676 85.0325C72.1676 79.3913 76.7407 74.8182 82.3819 74.8182C88.0231 74.8182 92.5961 79.3913 92.5961 85.0325C92.5961 90.6737 88.0231 95.2468 82.3819 95.2468C76.7407 95.2468 72.1676 90.6737 72.1676 85.0325ZM143.865 85.0325C143.865 79.3913 148.438 74.8182 154.079 74.8182C159.72 74.8182 164.293 79.3913 164.293 85.0325C164.293 90.6737 159.72 95.2468 154.079 95.2468C148.438 95.2468 143.865 90.6737 143.865 85.0325ZM99.5071 110.669C99.5071 120.352 117.037 128.208 117.037 128.208C117.037 128.208 134.575 120.352 134.575 110.669C134.575 100.987 99.5071 100.987 99.5071 110.669ZM227.572 130.148L206.054 126.71C207.348 124.006 208.451 121.197 209.395 118.312L225.8 120.939C226.102 120.988 226.399 121.004 226.696 121.004C229.407 121.004 231.791 119.041 232.23 116.279C232.722 113.22 230.636 110.337 227.577 109.847L212.071 107.368C212.721 103.359 213.063 99.2191 213.063 94.9564C213.063 79.0554 202.467 43.7875 198.137 32.874C194.813 24.5065 191.475 19.0521 187.612 12.7335C185.814 9.79727 183.886 6.64495 181.772 2.87238C180.836 1.20446 179.119 0.128911 177.209 0.0150835C175.237 -0.128943 173.467 0.767737 172.338 2.30789C165.32 11.9228 154.432 22.6342 150.026 22.6342C148.225 22.6342 144.91 22.2254 141.07 21.7515C134.283 20.9152 125.827 19.8698 117.055 19.8698C109.828 19.8698 102.838 20.7851 96.6684 21.5912C92.3871 22.151 88.6912 22.6342 86.1382 22.6342C76.8833 22.6342 66.2927 8.43134 63.31 3.45546C62.3018 1.77592 60.4922 0.737538 58.5292 0.725923C56.4827 0.716631 54.7474 1.71785 53.716 3.38577C47.1047 14.0762 42.7398 21.1382 37.9915 33.4943C33.6313 44.8398 23.4123 79.4364 23.4123 94.9541C23.4123 98.9845 23.7283 102.903 24.309 106.713L4.73769 109.845C1.67829 110.33 -0.407769 113.215 0.0823855 116.277C0.521434 119.037 2.90949 121.002 5.61811 121.002C5.91081 121.002 6.21048 120.983 6.51247 120.937L26.8736 117.68C27.7889 120.57 28.8691 123.378 30.1328 126.089L4.7284 130.148C1.669 130.638 -0.417061 133.518 0.0707704 136.585C0.512142 139.342 2.89787 141.31 5.6065 141.31C5.90152 141.31 6.20119 141.286 6.50318 141.245L36.1122 136.508C51.9319 159.262 81.4132 173.267 118.228 173.267C154.718 173.267 184.009 159.501 199.933 137.103L225.802 141.24C226.104 141.289 226.401 141.307 226.699 141.307C229.41 141.307 231.793 139.34 232.232 136.582C232.72 133.518 230.632 130.638 227.572 130.148ZM118.226 162.033C91.2488 162.033 64.1254 153.301 48.3777 134.538L53.3071 133.753C56.3688 133.263 58.4526 130.385 57.9624 127.318C57.4723 124.259 54.5894 122.173 51.5347 122.663L41.483 124.273C40.1008 121.629 38.9138 118.842 37.9265 115.908L53.3071 113.452C56.3688 112.96 58.4526 110.081 57.9624 107.017C57.4723 103.96 54.5894 101.872 51.5347 102.36L35.3503 104.95C34.8973 101.754 34.6301 98.4339 34.6301 94.9564C34.6301 82.3587 43.6039 50.1665 48.4637 37.52C51.7344 29.0062 54.752 23.3102 58.7894 16.5781C64.5505 23.8979 74.5278 33.8613 86.1242 33.8613C89.409 33.8613 93.4394 33.334 98.111 32.7253C103.937 31.9634 110.544 31.0992 117.043 31.0992C125.125 31.0992 133.195 32.0935 139.684 32.8926C144.065 33.4315 147.524 33.8613 150.012 33.8613C159.092 33.8613 169.608 23.3822 176.185 15.5723C176.814 16.613 177.425 17.6165 178.027 18.5945C181.765 24.7156 184.724 29.5475 187.691 37.0159C192.525 49.2048 201.822 82.0521 201.822 94.9541C201.822 98.6709 201.522 102.202 201.004 105.593L180.759 102.355C177.669 101.856 174.817 103.951 174.327 107.013C173.836 110.072 175.925 112.953 178.982 113.445L198.3 116.532C197.282 119.455 196.074 122.247 194.66 124.877L180.759 122.654C177.665 122.161 174.814 124.25 174.324 127.309C173.834 130.368 175.922 133.251 178.977 133.741L187.558 135.117C171.753 153.478 144.92 162.033 118.226 162.033Z" fill="black"/>
</svg>
