<svg width="829" height="130" viewBox="0 0 829 130" fill="none" xmlns="http://www.w3.org/2000/svg">
<path d="M65.7898 48.8263C56.892 48.7916 49.6853 55.9749 49.6932 64.8708L49.6299 81.1113L65.8184 81.0412C74.7162 81.0759 81.9229 73.8925 81.915 64.9967C81.9071 56.1008 74.6876 48.861 65.7898 48.8263Z" fill="#001426"/>
<path d="M65.3759 129.147C101.038 129.147 129.948 100.237 129.948 64.5751C129.948 28.9129 101.038 0.00292969 65.3759 0.00292969C29.7137 0.00292969 0.803711 28.9129 0.803711 64.5751C0.803711 87.6506 12.9078 107.899 31.1131 119.318V64.5751C31.1131 46.0162 46.1581 30.9712 64.717 30.9712C83.2759 30.9712 98.3209 46.0162 98.3209 64.5751C98.3209 83.134 83.2759 98.179 64.717 98.179H49.2329V127.113C54.3925 128.441 59.8017 129.147 65.3759 129.147Z" fill="#001426"/>
<path d="M193.279 103.833V26.5452H226.734C233.653 26.5452 239.615 27.6861 244.62 29.9679C249.625 32.1761 253.49 35.3781 256.213 39.5737C258.937 43.7693 260.299 48.7746 260.299 54.5896C260.299 60.331 258.937 65.2995 256.213 69.4951C253.49 73.6907 249.625 76.9295 244.62 79.2113C239.615 81.4195 233.653 82.5236 226.734 82.5236H203.216L211.166 74.4636V103.833H193.279ZM211.166 76.451L203.216 67.9494H225.74C231.26 67.9494 235.382 66.7716 238.106 64.4162C240.829 62.0608 242.191 58.7852 242.191 54.5896C242.191 50.3204 240.829 47.008 238.106 44.6526C235.382 42.2972 231.26 41.1194 225.74 41.1194H203.216L211.166 32.6178V76.451ZM272.932 103.833V21.9079H290.156V103.833H272.932ZM342.577 103.833V92.2398L341.473 89.7004V68.9431C341.473 65.2627 340.332 62.392 338.05 60.331C335.842 58.27 332.419 57.2395 327.782 57.2395C324.617 57.2395 321.489 57.7547 318.397 58.7852C315.379 59.7421 312.803 61.0671 310.668 62.76L304.485 50.7252C307.724 48.4434 311.625 46.6768 316.189 45.4255C320.753 44.1741 325.39 43.5485 330.101 43.5485C339.155 43.5485 346.184 45.6831 351.189 49.9523C356.195 54.2216 358.697 60.883 358.697 69.9368V103.833H342.577ZM324.47 104.716C319.833 104.716 315.858 103.943 312.545 102.398C309.233 100.778 306.694 98.6069 304.927 95.8834C303.16 93.1599 302.277 90.1052 302.277 86.7193C302.277 83.1861 303.124 80.0946 304.817 77.4447C306.583 74.7949 309.344 72.7338 313.097 71.2617C316.851 69.7159 321.746 68.9431 327.782 68.9431H343.571V78.9905H329.659C325.611 78.9905 322.814 79.653 321.268 80.9779C319.796 82.3028 319.06 83.959 319.06 85.9464C319.06 88.1546 319.906 89.9212 321.599 91.2461C323.366 92.4975 325.758 93.1231 328.776 93.1231C331.647 93.1231 334.223 92.4607 336.505 91.1357C338.787 89.7372 340.443 87.713 341.473 85.0631L344.123 93.0127C342.872 96.8403 340.59 99.7478 337.278 101.735C333.965 103.723 329.696 104.716 324.47 104.716ZM403.424 104.716C397.02 104.716 391.316 103.428 386.31 100.852C381.305 98.202 377.367 94.5585 374.496 89.9212C371.699 85.2839 370.301 80.021 370.301 74.1324C370.301 68.1702 371.699 62.9073 374.496 58.3436C377.367 53.7063 381.305 50.0995 386.31 47.5233C391.316 44.8734 397.02 43.5485 403.424 43.5485C409.681 43.5485 415.128 44.8734 419.765 47.5233C424.402 50.0995 427.825 53.8167 430.033 58.6748L416.674 65.8516C415.128 63.0545 413.177 60.9935 410.822 59.6685C408.54 58.3436 406.037 57.6811 403.314 57.6811C400.37 57.6811 397.72 58.3436 395.364 59.6685C393.009 60.9935 391.132 62.8704 389.733 65.2995C388.408 67.7285 387.746 70.6728 387.746 74.1324C387.746 77.5919 388.408 80.5362 389.733 82.9653C391.132 85.3943 393.009 87.2713 395.364 88.5963C397.72 89.9212 400.37 90.5837 403.314 90.5837C406.037 90.5837 408.54 89.958 410.822 88.7067C413.177 87.3817 415.128 85.2839 416.674 82.4132L430.033 89.7004C427.825 94.4849 424.402 98.202 419.765 100.852C415.128 103.428 409.681 104.716 403.424 104.716ZM468.676 104.716C461.904 104.716 455.941 103.391 450.789 100.741C445.71 98.0916 441.772 94.4849 438.975 89.9212C436.178 85.2839 434.779 80.021 434.779 74.1324C434.779 68.1702 436.141 62.9073 438.864 58.3436C441.662 53.7063 445.452 50.0995 450.237 47.5233C455.021 44.8734 460.431 43.5485 466.467 43.5485C472.282 43.5485 477.508 44.7998 482.146 47.3025C486.857 49.7315 490.574 53.2647 493.297 57.9019C496.021 62.4656 497.382 67.9494 497.382 74.3532C497.382 75.0157 497.346 75.7886 497.272 76.6718C497.198 77.4815 497.125 78.2544 497.051 78.9905H448.802V68.9431H487.997L481.373 71.9242C481.373 68.8327 480.747 66.146 479.496 63.8641C478.244 61.5823 476.515 59.8157 474.306 58.5644C472.098 57.2395 469.522 56.577 466.578 56.577C463.633 56.577 461.02 57.2395 458.739 58.5644C456.53 59.8157 454.801 61.6191 453.549 63.9746C452.298 66.2564 451.672 68.9799 451.672 72.145V74.7949C451.672 78.0336 452.371 80.9043 453.77 83.4069C455.242 85.836 457.266 87.713 459.843 89.0379C462.492 90.2892 465.584 90.9149 469.117 90.9149C472.282 90.9149 475.043 90.4364 477.398 89.4795C479.827 88.5227 482.035 87.0873 484.023 85.1735L493.187 95.1105C490.463 98.202 487.041 100.594 482.919 102.287C478.797 103.907 474.049 104.716 468.676 104.716ZM528.834 104.716C523.755 104.716 518.86 104.127 514.149 102.95C509.512 101.698 505.832 100.153 503.108 98.3124L508.85 85.9464C511.573 87.6394 514.775 89.0379 518.455 90.142C522.209 91.1725 525.89 91.6878 529.497 91.6878C533.471 91.6878 536.268 91.2093 537.888 90.2524C539.581 89.2955 540.427 87.9706 540.427 86.2776C540.427 84.8791 539.765 83.8486 538.44 83.1861C537.189 82.45 535.496 81.898 533.361 81.5299C531.226 81.1619 528.871 80.7939 526.295 80.4258C523.792 80.0578 521.253 79.5793 518.676 78.9905C516.1 78.328 513.745 77.3711 511.61 76.1198C509.475 74.8685 507.746 73.1755 506.421 71.0409C505.169 68.9063 504.544 66.146 504.544 62.76C504.544 59.0061 505.611 55.6937 507.746 52.823C509.954 49.9523 513.119 47.7073 517.241 46.0879C521.363 44.395 526.295 43.5485 532.036 43.5485C536.084 43.5485 540.206 43.9901 544.402 44.8734C548.598 45.7567 552.094 47.0448 554.891 48.7378L549.15 60.9935C546.279 59.3005 543.372 58.1596 540.427 57.5707C537.557 56.9082 534.759 56.577 532.036 56.577C528.208 56.577 525.411 57.0923 523.645 58.1228C521.878 59.1533 520.995 60.4782 520.995 62.0976C520.995 63.5697 521.621 64.6738 522.872 65.4099C524.197 66.146 525.927 66.7348 528.061 67.1765C530.196 67.6181 532.514 68.023 535.017 68.391C537.593 68.6854 540.17 69.1639 542.746 69.8264C545.322 70.4888 547.641 71.4457 549.702 72.697C551.836 73.8748 553.566 75.5309 554.891 77.6655C556.216 79.7266 556.879 82.45 556.879 85.836C556.879 89.5164 555.774 92.7919 553.566 95.6626C551.358 98.4597 548.156 100.668 543.96 102.287C539.838 103.907 534.796 104.716 528.834 104.716ZM589.831 103.833L624.279 26.5452H641.945L676.504 103.833H657.734L629.469 35.5989H636.535L608.159 103.833H589.831ZM607.055 87.2713L611.803 73.6907H651.551L656.409 87.2713H607.055ZM718.419 104.716C713.413 104.716 709.034 103.612 705.28 101.404C701.526 99.1957 698.582 95.8466 696.447 91.3565C694.386 86.7929 693.355 81.0515 693.355 74.1324C693.355 67.1397 694.349 61.3983 696.337 56.9082C698.324 52.4182 701.195 49.069 704.949 46.8608C708.703 44.6526 713.193 43.5485 718.419 43.5485C724.013 43.5485 729.018 44.8366 733.435 47.4129C737.925 49.9155 741.458 53.4487 744.034 58.0124C746.684 62.576 748.009 67.9494 748.009 74.1324C748.009 80.389 746.684 85.7992 744.034 90.3628C741.458 94.9265 737.925 98.4597 733.435 100.962C729.018 103.465 724.013 104.716 718.419 104.716ZM683.308 125.253V44.4318H699.759V56.577L699.428 74.2428L700.532 91.7982V125.253H683.308ZM715.438 90.5837C718.308 90.5837 720.848 89.9212 723.056 88.5963C725.338 87.2713 727.141 85.3943 728.466 82.9653C729.865 80.4626 730.564 77.5183 730.564 74.1324C730.564 70.6728 729.865 67.7285 728.466 65.2995C727.141 62.8704 725.338 60.9935 723.056 59.6685C720.848 58.3436 718.308 57.6811 715.438 57.6811C712.567 57.6811 709.991 58.3436 707.709 59.6685C705.427 60.9935 703.624 62.8704 702.299 65.2995C700.974 67.7285 700.311 70.6728 700.311 74.1324C700.311 77.5183 700.974 80.4626 702.299 82.9653C703.624 85.3943 705.427 87.2713 707.709 88.5963C709.991 89.9212 712.567 90.5837 715.438 90.5837ZM794.65 104.716C789.645 104.716 785.265 103.612 781.511 101.404C777.757 99.1957 774.813 95.8466 772.678 91.3565C770.617 86.7929 769.587 81.0515 769.587 74.1324C769.587 67.1397 770.58 61.3983 772.568 56.9082C774.555 52.4182 777.426 49.069 781.18 46.8608C784.934 44.6526 789.424 43.5485 794.65 43.5485C800.244 43.5485 805.249 44.8366 809.666 47.4129C814.156 49.9155 817.689 53.4487 820.265 58.0124C822.915 62.576 824.24 67.9494 824.24 74.1324C824.24 80.389 822.915 85.7992 820.265 90.3628C817.689 94.9265 814.156 98.4597 809.666 100.962C805.249 103.465 800.244 104.716 794.65 104.716ZM759.539 125.253V44.4318H775.99V56.577L775.659 74.2428L776.763 91.7982V125.253H759.539ZM791.669 90.5837C794.54 90.5837 797.079 89.9212 799.287 88.5963C801.569 87.2713 803.372 85.3943 804.697 82.9653C806.096 80.4626 806.795 77.5183 806.795 74.1324C806.795 70.6728 806.096 67.7285 804.697 65.2995C803.372 62.8704 801.569 60.9935 799.287 59.6685C797.079 58.3436 794.54 57.6811 791.669 57.6811C788.798 57.6811 786.222 58.3436 783.94 59.6685C781.658 60.9935 779.855 62.8704 778.53 65.2995C777.205 67.7285 776.543 70.6728 776.543 74.1324C776.543 77.5183 777.205 80.4626 778.53 82.9653C779.855 85.3943 781.658 87.2713 783.94 88.5963C786.222 89.9212 788.798 90.5837 791.669 90.5837Z" fill="#001426"/>
</svg>
