<svg width="280" height="229" viewBox="0 0 280 229" fill="none" xmlns="http://www.w3.org/2000/svg">
<path d="M140.754 49.088C131.823 49.0531 124.589 56.2636 124.597 65.193L124.533 81.4947L140.783 81.4244C149.714 81.4592 156.948 74.2488 156.94 65.3193C156.932 56.3899 149.685 49.1229 140.754 49.088Z" fill="#001426"/>
<path d="M140.34 129.711C176.137 129.711 205.156 100.692 205.156 64.8957C205.156 29.099 176.137 0.0800781 140.34 0.0800781C104.543 0.0800781 75.5244 29.099 75.5244 64.8957C75.5244 88.0582 87.6741 108.383 105.948 119.845V64.8957C105.948 46.2668 121.05 31.1651 139.679 31.1651C158.308 31.1651 173.409 46.2668 173.409 64.8957C173.409 83.5246 158.308 98.6263 139.679 98.6263H124.136V127.669C129.315 129.002 134.745 129.711 140.34 129.711Z" fill="#001426"/>
<path d="M4.23845 218.923V185.366H18.7636C21.7677 185.366 24.3563 185.862 26.5295 186.853C28.7027 187.811 30.3805 189.201 31.563 191.023C32.7454 192.845 33.3367 195.018 33.3367 197.543C33.3367 200.035 32.7454 202.193 31.563 204.014C30.3805 205.836 28.7027 207.242 26.5295 208.233C24.3563 209.191 21.7677 209.671 18.7636 209.671H8.55284L12.0044 206.171V218.923H4.23845ZM12.0044 207.034L8.55284 203.343H18.3321C20.729 203.343 22.5187 202.832 23.7012 201.809C24.8836 200.786 25.4749 199.364 25.4749 197.543C25.4749 195.689 24.8836 194.251 23.7012 193.228C22.5187 192.206 20.729 191.694 18.3321 191.694H8.55284L12.0044 188.003V207.034ZM38.8218 218.923V183.353H46.3001V218.923H38.8218ZM69.06 218.923V213.889L68.5806 212.787V203.775C68.5806 202.177 68.0853 200.93 67.0946 200.035C66.1358 199.141 64.6497 198.693 62.6364 198.693C61.2621 198.693 59.9039 198.917 58.5616 199.364C57.2513 199.78 56.1328 200.355 55.206 201.09L52.5215 195.865C53.9277 194.874 55.6215 194.107 57.6029 193.564C59.5843 193.02 61.5977 192.749 63.643 192.749C67.5739 192.749 70.626 193.676 72.7992 195.529C74.9723 197.383 76.0589 200.275 76.0589 204.206V218.923H69.06ZM61.1982 219.306C59.1848 219.306 57.4591 218.971 56.0209 218.3C54.5828 217.597 53.4802 216.654 52.7132 215.471C51.9462 214.289 51.5627 212.963 51.5627 211.493C51.5627 209.958 51.9303 208.616 52.6653 207.466C53.4323 206.315 54.6307 205.42 56.2606 204.781C57.8905 204.11 60.0158 203.775 62.6364 203.775H69.4914V208.137H63.4513C61.6936 208.137 60.4792 208.424 59.808 209C59.1689 209.575 58.8493 210.294 58.8493 211.157C58.8493 212.116 59.2168 212.883 59.9518 213.458C60.7188 214.001 61.7575 214.273 63.0678 214.273C64.3142 214.273 65.4327 213.985 66.4234 213.41C67.4141 212.803 68.1332 211.924 68.5806 210.773L69.7311 214.225C69.1878 215.887 68.1971 217.149 66.759 218.012C65.3209 218.875 63.4673 219.306 61.1982 219.306ZM95.4782 219.306C92.6978 219.306 90.221 218.747 88.0478 217.629C85.8747 216.478 84.1649 214.896 82.9185 212.883C81.7041 210.869 81.0969 208.584 81.0969 206.028C81.0969 203.439 81.7041 201.154 82.9185 199.173C84.1649 197.159 85.8747 195.593 88.0478 194.475C90.221 193.324 92.6978 192.749 95.4782 192.749C98.1947 192.749 100.56 193.324 102.573 194.475C104.586 195.593 106.072 197.207 107.031 199.316L101.231 202.432C100.56 201.218 99.7127 200.323 98.69 199.748C97.6993 199.173 96.6127 198.885 95.4303 198.885C94.1519 198.885 93.0014 199.173 91.9787 199.748C90.9561 200.323 90.1411 201.138 89.5339 202.193C88.9587 203.247 88.671 204.526 88.671 206.028C88.671 207.53 88.9587 208.808 89.5339 209.863C90.1411 210.917 90.9561 211.732 91.9787 212.307C93.0014 212.883 94.1519 213.17 95.4303 213.17C96.6127 213.17 97.6993 212.899 98.69 212.355C99.7127 211.78 100.56 210.869 101.231 209.623L107.031 212.787C106.072 214.864 104.586 216.478 102.573 217.629C100.56 218.747 98.1947 219.306 95.4782 219.306ZM123.809 219.306C120.868 219.306 118.28 218.731 116.043 217.581C113.838 216.43 112.128 214.864 110.913 212.883C109.699 210.869 109.092 208.584 109.092 206.028C109.092 203.439 109.683 201.154 110.865 199.173C112.08 197.159 113.726 195.593 115.803 194.475C117.88 193.324 120.229 192.749 122.85 192.749C125.375 192.749 127.644 193.292 129.657 194.379C131.702 195.433 133.316 196.967 134.499 198.981C135.681 200.962 136.272 203.343 136.272 206.123C136.272 206.411 136.256 206.747 136.225 207.13C136.193 207.482 136.161 207.817 136.129 208.137H115.18V203.775H132.198L129.321 205.069C129.321 203.727 129.05 202.56 128.507 201.569C127.963 200.579 127.212 199.812 126.253 199.268C125.295 198.693 124.176 198.405 122.898 198.405C121.619 198.405 120.485 198.693 119.494 199.268C118.535 199.812 117.784 200.595 117.241 201.617C116.698 202.608 116.426 203.791 116.426 205.165V206.315C116.426 207.721 116.73 208.968 117.337 210.054C117.976 211.109 118.855 211.924 119.974 212.499C121.124 213.042 122.466 213.314 124 213.314C125.375 213.314 126.573 213.106 127.596 212.691C128.65 212.275 129.609 211.652 130.472 210.821L134.451 215.136C133.268 216.478 131.782 217.517 129.993 218.252C128.203 218.955 126.142 219.306 123.809 219.306ZM149.928 219.306C147.723 219.306 145.598 219.051 143.552 218.539C141.539 217.996 139.941 217.325 138.758 216.526L141.251 211.157C142.434 211.892 143.824 212.499 145.422 212.979C147.052 213.426 148.65 213.65 150.216 213.65C151.941 213.65 153.156 213.442 153.859 213.027C154.594 212.611 154.961 212.036 154.961 211.301C154.961 210.694 154.674 210.246 154.099 209.958C153.555 209.639 152.82 209.399 151.893 209.239C150.967 209.08 149.944 208.92 148.825 208.76C147.739 208.6 146.636 208.393 145.518 208.137C144.399 207.849 143.376 207.434 142.45 206.89C141.523 206.347 140.772 205.612 140.197 204.685C139.653 203.759 139.382 202.56 139.382 201.09C139.382 199.46 139.845 198.022 140.772 196.776C141.731 195.529 143.105 194.554 144.895 193.851C146.684 193.116 148.825 192.749 151.318 192.749C153.076 192.749 154.866 192.941 156.687 193.324C158.509 193.708 160.027 194.267 161.241 195.002L158.749 200.323C157.502 199.588 156.24 199.093 154.961 198.837C153.715 198.549 152.501 198.405 151.318 198.405C149.656 198.405 148.442 198.629 147.675 199.077C146.908 199.524 146.524 200.099 146.524 200.802C146.524 201.442 146.796 201.921 147.339 202.241C147.915 202.56 148.666 202.816 149.592 203.008C150.519 203.199 151.526 203.375 152.612 203.535C153.731 203.663 154.85 203.87 155.968 204.158C157.087 204.446 158.093 204.861 158.988 205.404C159.915 205.916 160.666 206.635 161.241 207.562C161.817 208.456 162.104 209.639 162.104 211.109C162.104 212.707 161.625 214.129 160.666 215.375C159.707 216.59 158.317 217.549 156.495 218.252C154.706 218.955 152.517 219.306 149.928 219.306ZM176.411 218.923L191.368 185.366H199.038L214.042 218.923H205.893L193.621 189.297H196.689L184.369 218.923H176.411ZM183.89 211.732L185.951 205.836H203.209L205.318 211.732H183.89ZM232.241 219.306C230.068 219.306 228.166 218.827 226.536 217.868C224.906 216.909 223.628 215.455 222.701 213.506C221.806 211.524 221.359 209.032 221.359 206.028C221.359 202.992 221.79 200.499 222.653 198.549C223.516 196.6 224.763 195.146 226.392 194.187C228.022 193.228 229.972 192.749 232.241 192.749C234.67 192.749 236.843 193.308 238.76 194.427C240.71 195.513 242.244 197.047 243.362 199.029C244.513 201.01 245.088 203.343 245.088 206.028C245.088 208.744 244.513 211.093 243.362 213.074C242.244 215.056 240.71 216.59 238.76 217.676C236.843 218.763 234.67 219.306 232.241 219.306ZM216.997 228.223V193.132H224.139V198.405L223.996 206.076L224.475 213.698V228.223H216.997ZM230.947 213.17C232.193 213.17 233.295 212.883 234.254 212.307C235.245 211.732 236.028 210.917 236.603 209.863C237.21 208.776 237.514 207.498 237.514 206.028C237.514 204.526 237.21 203.247 236.603 202.193C236.028 201.138 235.245 200.323 234.254 199.748C233.295 199.173 232.193 198.885 230.947 198.885C229.7 198.885 228.582 199.173 227.591 199.748C226.6 200.323 225.817 201.138 225.242 202.193C224.667 203.247 224.379 204.526 224.379 206.028C224.379 207.498 224.667 208.776 225.242 209.863C225.817 210.917 226.6 211.732 227.591 212.307C228.582 212.883 229.7 213.17 230.947 213.17ZM265.338 219.306C263.165 219.306 261.264 218.827 259.634 217.868C258.004 216.909 256.726 215.455 255.799 213.506C254.904 211.524 254.457 209.032 254.457 206.028C254.457 202.992 254.888 200.499 255.751 198.549C256.614 196.6 257.86 195.146 259.49 194.187C261.12 193.228 263.069 192.749 265.338 192.749C267.767 192.749 269.94 193.308 271.858 194.427C273.807 195.513 275.341 197.047 276.46 199.029C277.611 201.01 278.186 203.343 278.186 206.028C278.186 208.744 277.611 211.093 276.46 213.074C275.341 215.056 273.807 216.59 271.858 217.676C269.94 218.763 267.767 219.306 265.338 219.306ZM250.094 228.223V193.132H257.237V198.405L257.093 206.076L257.573 213.698V228.223H250.094ZM264.044 213.17C265.291 213.17 266.393 212.883 267.352 212.307C268.343 211.732 269.126 210.917 269.701 209.863C270.308 208.776 270.612 207.498 270.612 206.028C270.612 204.526 270.308 203.247 269.701 202.193C269.126 201.138 268.343 200.323 267.352 199.748C266.393 199.173 265.291 198.885 264.044 198.885C262.798 198.885 261.679 199.173 260.689 199.748C259.698 200.323 258.915 201.138 258.34 202.193C257.764 203.247 257.477 204.526 257.477 206.028C257.477 207.498 257.764 208.776 258.34 209.863C258.915 210.917 259.698 211.732 260.689 212.307C261.679 212.883 262.798 213.17 264.044 213.17Z" fill="#001426"/>
</svg>
