<svg width="563" height="222" viewBox="0 0 563 222" fill="none" xmlns="http://www.w3.org/2000/svg">
<path d="M464.039 0H442.594C445.694 0.25814 448.536 2.32326 449.57 5.16279C451.12 8.5186 451.12 14.4558 451.12 22.2V222C457.063 220.193 461.455 215.288 462.488 209.093C463.264 215.288 467.914 220.451 473.857 222V18.586C473.857 10.8419 473.34 7.74419 472.048 5.42093C470.498 2.32326 467.398 0.25814 464.039 0Z" fill="#DE2121"/>
<path d="M130.22 137.33C108 137.33 92.4977 155.4 92.4977 177.342V177.6C92.4977 201.091 109.292 217.353 132.287 217.353C144.431 217.87 155.799 212.449 163.292 202.898L150.89 191.798C146.239 196.96 139.522 199.8 132.546 199.8C123.244 200.316 115.235 193.863 113.943 184.828H166.909C167.168 182.763 167.168 181.472 167.168 179.407V179.149C167.168 157.465 155.541 137.33 130.22 137.33ZM113.684 171.405C115.493 161.595 121.177 155.142 130.22 155.142C139.263 155.142 144.948 161.853 146.239 171.405H113.684ZM86.0384 215.805L61.7513 179.923C74.4116 175.277 82.9379 164.951 82.9379 148.688V148.43C82.9379 127.779 68.9857 115.13 45.4737 115.13H0V215.805H21.9617V183.537H39.2728L60.4594 215.805H86.0384ZM44.1819 164.177H21.9617V135.265H43.6651C54.2584 135.265 60.9761 140.17 60.9761 149.721V149.979C60.7178 158.24 54.7752 164.177 44.1819 164.177ZM213.933 137.847C203.857 137.588 193.522 139.653 184.479 144.042L189.905 160.821C196.622 157.981 203.598 156.691 210.833 156.691C221.684 156.691 227.11 161.595 227.11 170.888V172.179C221.168 170.114 214.967 169.081 208.507 169.081C190.421 169.081 177.761 176.826 177.761 193.605C177.761 208.835 189.646 217.095 203.857 217.095C212.641 217.353 221.168 213.998 226.852 207.286V215.547H247.78V171.147C247.78 150.237 237.445 137.847 213.933 137.847ZM227.369 184.828V188.7C227.369 196.702 220.651 202.123 210.574 202.123C203.598 202.123 198.689 198.767 198.689 192.83V192.572C198.689 185.602 204.373 181.988 213.675 181.988C218.326 181.988 222.976 182.763 227.369 184.828ZM526.048 137.33C503.828 137.33 488.326 155.4 488.326 177.342V177.6C488.326 201.091 505.12 217.353 528.115 217.353C540.259 217.87 551.627 212.449 559.12 202.898L546.718 191.798C542.068 196.96 535.35 199.8 528.374 199.8C519.072 200.316 511.063 193.863 509.771 184.828H562.737C562.996 182.763 562.996 181.472 562.996 179.407V179.149C563.254 157.465 551.627 137.33 526.048 137.33ZM509.771 171.405C511.579 161.595 517.264 155.142 526.307 155.142C535.35 155.142 541.034 161.853 542.326 171.405H509.771ZM319.091 148.947C313.407 141.46 304.622 137.33 295.321 137.33C277.235 137.33 260.699 151.528 260.699 177.084V177.342C260.699 203.156 277.493 217.095 295.321 217.095C304.881 217.353 313.924 212.449 319.091 204.705V215.805H340.795V111H319.091V148.947ZM319.608 177.342C319.608 190.249 311.34 198.509 301.263 198.509C291.187 198.509 282.661 189.991 282.661 177.342V177.084C282.661 164.177 291.187 155.916 301.263 155.916C311.34 155.916 319.608 164.435 319.608 177.342ZM412.881 148.947C407.197 141.46 398.412 137.33 389.11 137.33C371.024 137.33 354.488 151.528 354.488 177.084V177.342C354.488 203.156 371.283 217.095 389.11 217.095C398.67 217.353 407.713 212.449 412.881 204.705V215.805H434.584V111H412.881V148.947ZM413.139 177.342C413.139 190.249 404.871 198.509 394.795 198.509C384.718 198.509 376.192 189.991 376.192 177.342V177.084C376.192 164.177 384.718 155.916 394.795 155.916C404.871 155.916 413.139 164.435 413.139 177.342Z" fill="white"/>
</svg>
